<svg width="142" height="33" viewBox="0 0 142 33" fill="none" xmlns="http://www.w3.org/2000/svg">
<path d="M0.652344 8.77097C5.2297 6.00642 9.7844 3.26454 14.3618 0.5C18.8938 3.15124 23.4258 5.77982 27.9579 8.43106C27.9579 13.6882 27.9579 18.9227 27.9579 24.1799C23.4711 26.8991 18.9618 29.6183 14.4751 32.3376C14.4751 29.6183 14.4751 26.8991 14.4751 24.1799C16.7411 22.9789 19.0071 21.7553 21.2731 20.5543C21.2731 17.835 21.2731 15.1158 21.2731 12.3966C18.9391 11.105 16.5825 9.836 14.2485 8.54437C11.9824 9.90398 9.71642 11.2636 7.4504 12.6232C7.4504 17.835 7.4504 23.0469 7.4504 28.2587C5.18438 26.9671 2.91836 25.6981 0.652344 24.4065C0.652344 19.1947 0.652344 13.9828 0.652344 8.77097Z" fill="#1565D8"/>
<path d="M38.5996 7.62109H44.7433C45.872 7.62109 46.7313 7.68522 47.3213 7.81348C48.2619 8.01015 49.0956 8.49754 49.8224 9.27565C50.934 10.4727 51.4898 12.1188 51.4898 14.2137C51.4898 16.0863 50.9297 17.604 49.8095 18.7669C49.1597 19.4424 48.3517 19.9127 47.3854 20.1778C46.8382 20.3317 46.1157 20.4086 45.2178 20.4086H42.1139V25.2184H38.5996V7.62109ZM42.1139 10.353V17.6767H44.2687C45.4059 17.6767 46.2439 17.433 46.7826 16.9456C47.518 16.2787 47.8856 15.2782 47.8856 13.9443C47.8856 12.6446 47.488 11.6656 46.6928 11.0072C46.1798 10.5711 45.453 10.353 44.5124 10.353H42.1139Z" fill="#1565D8"/>
<path d="M62.9306 12.6361C62.9391 11.9178 62.8408 11.4133 62.6356 11.1226C62.3363 10.7122 61.8959 10.477 61.3145 10.4172C60.9468 10.3744 60.592 10.353 60.2499 10.353H54.2987V7.62109H60.2499C61.4983 7.62109 62.379 7.65957 62.8921 7.73653C64.3885 7.9674 65.4359 8.81391 66.0345 10.2761C66.3166 11.02 66.4534 11.9948 66.4449 13.2004V20.4086H59.0315C57.8258 20.4086 56.9878 20.3787 56.5176 20.3189C55.3974 20.182 54.5594 19.6947 54.0037 18.8567C53.5761 18.2154 53.3624 17.4672 53.3624 16.6121C53.3624 15.5347 53.683 14.6155 54.3243 13.8545C54.8544 13.2218 55.6497 12.8456 56.7099 12.7258C57.2486 12.666 57.8857 12.6361 58.621 12.6361H62.9306ZM62.9306 15.368H58.8647L58.2747 15.3552C57.8985 15.3552 57.5907 15.4492 57.3512 15.6374C57.0862 15.8511 56.9536 16.1547 56.9536 16.548C56.9536 17.0097 57.146 17.3261 57.5308 17.4971C57.7959 17.6168 58.2405 17.6767 58.8647 17.6767H62.9306V15.368Z" fill="#1565D8"/>
<path d="M74.7305 16.4197L78.2961 7.62109H82.0157L76.5005 20.4086H72.7296L67.6249 7.62109H71.4599L74.7305 16.4197Z" fill="#1565D8"/>
<path d="M92.315 17.6767V7.62109H95.8293V20.1521C95.8293 22.076 95.1794 23.4484 93.8797 24.2693C93.1102 24.731 91.9302 24.9619 90.3398 24.9619H84.055V22.2299H90.3398C91.2119 22.2128 91.7506 22.0931 91.9558 21.8708C92.0926 21.734 92.1824 21.533 92.2252 21.268C92.2508 21.1141 92.2808 20.8276 92.315 20.4086H89.1726C85.5642 20.4941 83.8583 18.613 84.055 14.7652V7.62109H87.5693V14.4189C87.5779 15.539 87.6335 16.2658 87.7361 16.5993C87.984 17.3261 88.5441 17.6852 89.4163 17.6767H92.315Z" fill="#1565D8"/>
<path d="M99.0101 7.62109H105.154C106.283 7.62109 107.142 7.68522 107.732 7.81348C108.672 8.01015 109.506 8.49754 110.233 9.27565C111.344 10.4727 111.9 12.1188 111.9 14.2137C111.9 16.0863 111.34 17.604 110.22 18.7669C109.57 19.4424 108.762 19.9127 107.796 20.1778C107.249 20.3317 106.526 20.4086 105.628 20.4086H102.524V25.2184H99.0101V7.62109ZM102.524 10.353V17.6767H104.679C105.816 17.6767 106.654 17.433 107.193 16.9456C107.929 16.2787 108.296 15.2782 108.296 13.9443C108.296 12.6446 107.899 11.6656 107.103 11.0072C106.59 10.5711 105.864 10.353 104.923 10.353H102.524Z" fill="#1565D8"/>
<path d="M123.341 12.6361C123.35 11.9178 123.251 11.4133 123.046 11.1226C122.747 10.7122 122.306 10.477 121.725 10.4172C121.357 10.3744 121.002 10.353 120.66 10.353H114.709V7.62109H120.66C121.909 7.62109 122.79 7.65957 123.303 7.73653C124.799 7.9674 125.846 8.81391 126.445 10.2761C126.727 11.02 126.864 11.9948 126.855 13.2004V20.4086H119.442C118.236 20.4086 117.398 20.3787 116.928 20.3189C115.808 20.182 114.97 19.6947 114.414 18.8567C113.987 18.2154 113.773 17.4672 113.773 16.6121C113.773 15.5347 114.094 14.6155 114.735 13.8545C115.265 13.2218 116.06 12.8456 117.12 12.7258C117.659 12.666 118.296 12.6361 119.032 12.6361H123.341ZM123.341 15.368H119.275L118.685 15.3552C118.309 15.3552 118.001 15.4492 117.762 15.6374C117.497 15.8511 117.364 16.1547 117.364 16.548C117.364 17.0097 117.557 17.3261 117.941 17.4971C118.206 17.6168 118.651 17.6767 119.275 17.6767H123.341V15.368Z" fill="#1565D8"/>
<path d="M138.283 17.6767V7.62109H141.798V20.1521C141.798 22.076 141.148 23.4484 139.848 24.2693C139.079 24.731 137.899 24.9619 136.308 24.9619H130.023V22.2299H136.308C137.18 22.2128 137.719 22.0931 137.924 21.8708C138.061 21.734 138.151 21.533 138.194 21.268C138.219 21.1141 138.249 20.8276 138.283 20.4086H135.141C131.533 20.4941 129.827 18.613 130.023 14.7652V7.62109H133.538V14.4189C133.546 15.539 133.602 16.2658 133.705 16.5993C133.952 17.3261 134.513 17.6852 135.385 17.6767H138.283Z" fill="#1565D8"/>
</svg>
