<svg width="142" height="33" viewBox="0 0 142 33" fill="none" xmlns="http://www.w3.org/2000/svg">
<path d="M0.652344 8.77292C5.2297 6.00838 9.7844 3.2665 14.3618 0.501953C18.8938 3.15319 23.4258 5.78178 27.9579 8.43302C27.9579 13.6902 27.9579 18.9247 27.9579 24.1818C23.4711 26.9011 18.9618 29.6203 14.4751 32.3395C14.4751 29.6203 14.4751 26.9011 14.4751 24.1818C16.7411 22.9809 19.0071 21.7572 21.2731 20.5562C21.2731 17.837 21.2731 15.1178 21.2731 12.3986C18.9391 11.1069 16.5825 9.83795 14.2485 8.54632C11.9824 9.90593 9.71642 11.2655 7.4504 12.6252C7.4504 17.837 7.4504 23.0488 7.4504 28.2607C5.18438 26.969 2.91836 25.7001 0.652344 24.4084C0.652344 19.1966 0.652344 13.9848 0.652344 8.77292Z" fill="white"/>
<path d="M38.5996 7.62305H44.7433C45.872 7.62305 46.7313 7.68718 47.3213 7.81544C48.2619 8.0121 49.0956 8.49949 49.8224 9.2776C50.934 10.4747 51.4898 12.1207 51.4898 14.2156C51.4898 16.0882 50.9297 17.606 49.8095 18.7689C49.1597 19.4444 48.3517 19.9146 47.3854 20.1797C46.8382 20.3336 46.1157 20.4106 45.2178 20.4106H42.1139V25.2203H38.5996V7.62305ZM42.1139 10.355V17.6786H44.2687C45.4059 17.6786 46.2439 17.4349 46.7826 16.9476C47.518 16.2806 47.8856 15.2802 47.8856 13.9463C47.8856 12.6466 47.488 11.6675 46.6928 11.0091C46.1798 10.573 45.453 10.355 44.5124 10.355H42.1139Z" fill="white"/>
<path d="M62.9306 12.638C62.9391 11.9198 62.8408 11.4153 62.6356 11.1245C62.3363 10.7141 61.8959 10.479 61.3145 10.4191C60.9468 10.3764 60.592 10.355 60.2499 10.355H54.2987V7.62305H60.2499C61.4983 7.62305 62.379 7.66152 62.8921 7.73848C64.3885 7.96935 65.4359 8.81587 66.0345 10.278C66.3166 11.0219 66.4534 11.9967 66.4449 13.2024V20.4106H59.0315C57.8258 20.4106 56.9878 20.3807 56.5176 20.3208C55.3974 20.184 54.5594 19.6966 54.0037 18.8586C53.5761 18.2173 53.3624 17.4692 53.3624 16.6141C53.3624 15.5367 53.683 14.6175 54.3243 13.8565C54.8544 13.2237 55.6497 12.8475 56.7099 12.7278C57.2486 12.6679 57.8857 12.638 58.621 12.638H62.9306ZM62.9306 15.37H58.8647L58.2747 15.3571C57.8985 15.3571 57.5907 15.4512 57.3512 15.6393C57.0862 15.8531 56.9536 16.1566 56.9536 16.55C56.9536 17.0117 57.146 17.3281 57.5308 17.4991C57.7959 17.6188 58.2405 17.6786 58.8647 17.6786H62.9306V15.37Z" fill="white"/>
<path d="M74.7305 16.4217L78.2961 7.62305H82.0157L76.5005 20.4106H72.7296L67.6249 7.62305H71.4599L74.7305 16.4217Z" fill="white"/>
<path d="M92.315 17.6786V7.62305H95.8293V20.1541C95.8293 22.078 95.1794 23.4504 93.8797 24.2712C93.1102 24.733 91.9302 24.9638 90.3398 24.9638H84.055V22.2319H90.3398C91.2119 22.2148 91.7506 22.0951 91.9558 21.8728C92.0926 21.7359 92.1824 21.535 92.2252 21.2699C92.2508 21.116 92.2808 20.8296 92.315 20.4106H89.1726C85.5642 20.4961 83.8583 18.6149 84.055 14.7671V7.62305H87.5693V14.4208C87.5779 15.541 87.6335 16.2678 87.7361 16.6013C87.984 17.3281 88.5441 17.6872 89.4163 17.6786H92.315Z" fill="white"/>
<path d="M99.0101 7.62305H105.154C106.283 7.62305 107.142 7.68718 107.732 7.81544C108.672 8.0121 109.506 8.49949 110.233 9.2776C111.344 10.4747 111.9 12.1207 111.9 14.2156C111.9 16.0882 111.34 17.606 110.22 18.7689C109.57 19.4444 108.762 19.9146 107.796 20.1797C107.249 20.3336 106.526 20.4106 105.628 20.4106H102.524V25.2203H99.0101V7.62305ZM102.524 10.355V17.6786H104.679C105.816 17.6786 106.654 17.4349 107.193 16.9476C107.929 16.2806 108.296 15.2802 108.296 13.9463C108.296 12.6466 107.899 11.6675 107.103 11.0091C106.59 10.573 105.864 10.355 104.923 10.355H102.524Z" fill="white"/>
<path d="M123.341 12.638C123.35 11.9198 123.251 11.4153 123.046 11.1245C122.747 10.7141 122.306 10.479 121.725 10.4191C121.357 10.3764 121.002 10.355 120.66 10.355H114.709V7.62305H120.66C121.909 7.62305 122.79 7.66152 123.303 7.73848C124.799 7.96935 125.846 8.81587 126.445 10.278C126.727 11.0219 126.864 11.9967 126.855 13.2024V20.4106H119.442C118.236 20.4106 117.398 20.3807 116.928 20.3208C115.808 20.184 114.97 19.6966 114.414 18.8586C113.987 18.2173 113.773 17.4692 113.773 16.6141C113.773 15.5367 114.094 14.6175 114.735 13.8565C115.265 13.2237 116.06 12.8475 117.12 12.7278C117.659 12.6679 118.296 12.638 119.032 12.638H123.341ZM123.341 15.37H119.275L118.685 15.3571C118.309 15.3571 118.001 15.4512 117.762 15.6393C117.497 15.8531 117.364 16.1566 117.364 16.55C117.364 17.0117 117.557 17.3281 117.941 17.4991C118.206 17.6188 118.651 17.6786 119.275 17.6786H123.341V15.37Z" fill="white"/>
<path d="M138.283 17.6786V7.62305H141.798V20.1541C141.798 22.078 141.148 23.4504 139.848 24.2712C139.079 24.733 137.899 24.9638 136.308 24.9638H130.023V22.2319H136.308C137.18 22.2148 137.719 22.0951 137.924 21.8728C138.061 21.7359 138.151 21.535 138.194 21.2699C138.219 21.116 138.249 20.8296 138.283 20.4106H135.141C131.533 20.4961 129.827 18.6149 130.023 14.7671V7.62305H133.538V14.4208C133.546 15.541 133.602 16.2678 133.705 16.6013C133.952 17.3281 134.513 17.6872 135.385 17.6786H138.283Z" fill="white"/>
</svg>
